<svg width="176" height="122" viewBox="0 0 176 122" fill="none" xmlns="http://www.w3.org/2000/svg">
<path fill-rule="evenodd" clip-rule="evenodd" d="M1.37568 48.3256L1.37568 48.3256L1.37568 48.3256L1.37568 48.3258C1.3722 48.4478 1.36858 48.575 1.36366 48.7095C0.307556 48.877 0.105046 49.0394 0.125036 49.9199L0.126256 49.9765C0.135177 50.4007 0.144655 50.8514 0.485806 51.2297C0.651417 51.413 0.783275 51.6264 0.915313 51.8401C1.04119 52.0438 1.16722 52.2477 1.32282 52.4262C1.96505 53.1618 2.68601 53.7996 3.70767 53.9601C4.03591 54.0116 4.36164 54.0792 4.69905 54.1494L4.69906 54.1494C4.85502 54.1818 5.01347 54.2147 5.17581 54.2468L5.50704 54.0234C5.547 53.9964 5.58672 53.9691 5.62645 53.9417L5.62648 53.9417L5.62651 53.9417L5.62653 53.9416L5.62656 53.9416L5.62659 53.9416L5.62661 53.9416L5.62664 53.9416L5.62667 53.9416L5.6267 53.9415L5.62672 53.9415L5.62675 53.9415L5.62678 53.9415L5.62681 53.9415L5.62683 53.9414L5.62686 53.9414L5.62689 53.9414L5.62691 53.9414L5.62694 53.9414L5.62697 53.9413L5.627 53.9413L5.62702 53.9413L5.62705 53.9413L5.62708 53.9413L5.62712 53.9412L5.62715 53.9412L5.62719 53.9412L5.62722 53.9412L5.62725 53.9412L5.62729 53.9411L5.62732 53.9411L5.62735 53.9411L5.62739 53.9411L5.62742 53.941L5.62746 53.941L5.62749 53.941L5.62752 53.941L5.62756 53.941L5.62759 53.9409L5.62763 53.9409L5.62766 53.9409L5.62769 53.9409L5.62773 53.9408L5.62776 53.9408L5.62779 53.9408C5.70743 53.8859 5.78711 53.8311 5.86877 53.7794C6.50688 53.3753 6.50875 53.3767 7.26195 53.9556L7.27943 53.969C7.34992 54.0233 7.43964 54.0638 7.52767 54.1035C7.66088 54.1635 7.79023 54.2218 7.84331 54.3237C8.15753 54.9281 8.6724 54.9935 9.24896 54.9926L9.00542 54.1978L8.73456 53.3139L8.93597 53.2295L9.84461 54.5767C10.8075 54.205 10.5176 53.5986 10.2472 53.0328C10.2305 52.9976 10.2137 52.9626 10.1974 52.9279C10.8522 52.8162 11.2654 52.5919 11.1738 51.9335C11.1001 51.404 11.3817 51.4631 11.6687 51.5233L11.6688 51.5233L11.6688 51.5234C11.7083 51.5316 11.7478 51.5399 11.7865 51.5467C11.7735 50.4717 11.3924 49.4318 10.7071 48.6009C10.2011 47.9354 9.74081 47.2354 9.28044 46.5353L9.28039 46.5352L9.28035 46.5352L9.28031 46.5351L9.28027 46.535L9.28022 46.535L9.28018 46.5349L9.28014 46.5348L9.2801 46.5348L9.28006 46.5347L9.28001 46.5347L9.27997 46.5346L9.27993 46.5345L9.27989 46.5345L9.27984 46.5344L9.2798 46.5343L9.27976 46.5343L9.27972 46.5342L9.27967 46.5341L9.27963 46.5341L9.27959 46.534L9.27955 46.534L9.2795 46.5339C9.04279 46.1739 8.80605 45.8139 8.56303 45.4585C8.41179 45.2577 8.25055 45.0647 8.07991 44.8802L7.95964 44.9693L8.63137 46.2171C8.29488 46.0101 8.01321 45.7245 7.81067 45.3848C7.59307 45.0764 7.35217 44.785 7.09011 44.5134C6.82331 44.2873 6.54134 44.08 6.24622 43.8928L6.43136 44.5849C5.51256 44.1114 5.51166 44.1124 4.87433 44.8124L4.86929 44.8179C4.7819 44.9135 4.63979 45.0638 4.56102 45.0444C4.12829 44.9333 4.00168 45.1088 3.85727 45.5038C3.82344 45.5961 3.66027 45.6268 3.4805 45.6606C3.31477 45.6918 3.13493 45.7256 3.02938 45.8129C2.76447 46.0563 2.55674 46.3557 2.42099 46.6896C2.3248 46.9037 2.1411 46.921 1.96218 46.9378C1.79715 46.9534 1.63619 46.9685 1.55169 47.1373C1.48185 47.2572 1.43468 47.389 1.41255 47.5263C1.39114 47.7824 1.38382 48.0397 1.37568 48.3256ZM31.7017 44.0618C31.5917 44.2005 31.3463 44.2318 30.8645 44.2932C30.8639 44.4429 30.827 44.5884 30.7897 44.7352C30.7103 45.0482 30.6292 45.3674 30.8947 45.7472C31.2357 46.2516 31.7527 46.6102 32.3431 46.7516C32.4101 46.7693 32.4791 46.7909 32.5487 46.8128C32.772 46.8828 33.0021 46.955 33.1961 46.9055C33.7647 46.7606 34.2916 46.8953 34.8172 47.0297C35.0727 47.095 35.3279 47.1603 35.5875 47.1933C36.5074 47.3111 37.2009 47.9152 37.7286 48.5868C39.0098 50.2171 40.8163 50.9522 42.6213 51.6867L42.7674 51.7461C43.352 51.9833 43.8984 51.7278 44.4532 51.4684C44.5479 51.424 44.6429 51.3796 44.7384 51.3375L44.7851 51.3169C45.8207 50.8602 46.064 50.7529 45.9622 49.8427L45.9508 49.7428C45.8845 49.1711 45.8412 48.7986 46.6428 48.9034C46.703 48.9122 46.8005 48.7031 46.8759 48.5412L46.8872 48.5171C46.8964 48.4974 46.9052 48.4786 46.9135 48.4613C46.9446 48.3963 46.9714 48.3033 46.9959 48.2181L46.9959 48.218C47.0288 48.1033 47.0578 48.0028 47.0879 48.0033C47.822 48.0259 47.5442 47.5319 47.4051 47.2846L47.3981 47.2721C47.3511 47.1884 47.3043 47.1036 47.2573 47.0183L47.2573 47.0183L47.2572 47.0183L47.2572 47.0183L47.2571 47.0181C46.9469 46.4554 46.6257 45.873 46.1617 45.4738C45.9984 45.3336 45.8458 45.1736 45.6924 45.0128L45.6924 45.0127L45.6924 45.0127L45.6923 45.0126L45.6923 45.0126L45.6922 45.0125L45.6922 45.0125L45.6921 45.0124L45.6921 45.0124L45.692 45.0124L45.692 45.0123L45.6919 45.0123L45.6919 45.0122L45.6919 45.0122L45.6918 45.0121L45.6918 45.0121L45.6917 45.012L45.6917 45.012L45.6916 45.0119L45.6916 45.0119L45.6915 45.0118L45.6915 45.0118L45.6915 45.0118L45.6914 45.0117L45.6914 45.0117C45.3065 44.6081 44.9166 44.1992 44.3423 44.083C43.9596 44.0395 43.6213 43.8113 43.4363 43.472C43.3207 43.3318 43.1675 43.2276 42.995 43.1718C42.886 43.1219 42.7771 43.0715 42.6682 43.0211C42.1961 42.8025 41.7235 42.5838 41.2362 42.4072C40.9089 42.2887 40.5736 42.193 40.2383 42.0973C39.8955 41.9995 39.5528 41.9016 39.2189 41.7796C38.7471 41.6074 38.2606 41.4766 37.7805 41.3476L37.7804 41.3476L37.7795 41.3473C37.6844 41.3218 37.5895 41.2963 37.495 41.2705C37.3865 41.241 37.2776 41.2092 37.1681 41.1773L37.168 41.1773C36.4282 40.9619 35.6649 40.7396 34.869 41.13C34.287 41.3816 33.6917 41.6014 33.0857 41.7885C32.9998 42.2564 32.6546 42.4619 32.3109 42.6666C32.0902 42.7981 31.8701 42.9291 31.7196 43.1291C31.7842 43.6583 31.8159 43.9179 31.7017 44.0618ZM174.5 63.0873C173.951 61.9175 173.703 60.7142 174.089 59.5098C173.942 59.3394 173.804 59.1857 173.675 59.0416L173.674 59.0412L173.673 59.0398L173.673 59.0395C173.416 58.7528 173.193 58.5043 172.995 58.2392C172.605 57.7151 172.087 57.2646 171.479 57.4791C170.753 57.735 170.223 57.7431 169.748 57.1005C169.683 57.0333 169.592 56.9992 169.5 57.0079C168.723 57.1503 167.99 56.9607 167.258 56.7711L167.258 56.7711C166.876 56.6722 166.494 56.5734 166.106 56.5217L165.953 56.501C165.085 56.3825 165.038 56.3761 164.115 57.099C163.929 57.2443 163.755 57.4038 163.554 57.5871L163.436 57.6953C163.372 57.7537 163.305 57.8145 163.233 57.878C162.474 57.672 161.728 57.4183 161.001 57.1181C160.803 57.0256 160.587 56.9689 160.371 56.9121C159.916 56.7925 159.458 56.6724 159.17 56.217C158.773 56.414 158.392 56.2957 158.046 56.1884C157.821 56.1185 157.61 56.0533 157.421 56.0827L156.359 57.1552L156.814 57.8288C156.589 57.8014 156.457 57.7853 156.398 57.7777L156.143 58.3848C158.204 59.633 160.376 60.6832 162.632 61.5212C162.985 61.6324 163.239 61.944 163.276 62.3124C162.927 62.1722 162.585 62.0408 162.249 61.9119C161.51 61.628 160.8 61.3558 160.119 61.0261C159.246 60.6036 158.396 60.1325 157.545 59.6605L157.544 59.6603L157.544 59.6599L157.543 59.6596L157.542 59.6592L157.542 59.6589C157.175 59.4555 156.807 59.2519 156.438 59.0521C156.1 59.9531 156.103 59.9546 156.744 60.364L156.773 60.3824C158.641 61.5751 160.655 62.4826 162.663 63.3876L162.663 63.3876C162.969 63.5254 163.275 63.6632 163.58 63.8019C165.842 64.8303 168.154 65.7739 170.664 66.1053C171.154 66.17 171.621 66.1276 172.087 66.0853L172.088 66.0852C172.3 66.066 172.511 66.0467 172.725 66.0376C172.99 65.9903 173.212 65.8119 173.316 65.5635C173.384 65.1847 173.595 64.9646 173.822 64.7281L173.866 64.6822C173.91 64.6366 173.954 64.5899 173.997 64.5411C174.024 64.5103 174.053 64.479 174.081 64.4472C174.4 64.0956 174.777 63.6789 174.5 63.0873ZM140.259 37.5118C139.937 37.4483 139.626 37.3794 139.322 37.312C138.677 37.1689 138.062 37.0325 137.439 36.9688C135.315 36.7509 133.511 35.7621 131.708 34.7735C131.283 34.5409 130.859 34.3083 130.431 34.0857C129.579 33.6431 129.091 32.8509 128.608 32.0678L128.607 32.0668C128.517 31.9209 128.428 31.7753 128.336 31.6324C128.267 31.5253 128.296 31.3547 128.327 31.1786C128.341 31.0955 128.356 31.0112 128.361 30.9318L128.389 30.9479C128.779 31.167 129.148 31.3746 129.682 31.6738L128.562 30.0136C128.636 29.8843 128.714 29.763 128.789 29.6458C128.954 29.39 129.107 29.1535 129.169 28.8952C129.278 28.5183 129.582 28.231 129.964 28.1439C130.218 28.0524 130.51 28.0639 130.815 28.0758C130.951 28.0811 131.089 28.0866 131.228 28.0831C131.631 29.0794 132.464 29.579 133.399 30.0543C133.51 29.9258 133.662 29.8395 133.817 29.7517C134.093 29.5949 134.377 29.4333 134.45 29.0187C134.534 28.8418 134.7 28.7186 134.893 28.6901C135.203 28.6749 135.514 28.637 135.825 28.5991C136.828 28.4769 137.833 28.3544 138.783 28.9928L138.847 29.0359L138.848 29.0363C139.059 29.1798 139.304 29.3466 139.514 29.3269C139.66 29.3132 139.756 29.4091 139.852 29.5044C139.984 29.6362 140.115 29.7667 140.376 29.6045C140.623 29.4517 140.714 29.6337 140.806 29.819C140.852 29.9118 140.899 30.0055 140.966 30.0582C141.226 30.2379 141.473 30.436 141.705 30.651C141.89 30.8767 142.057 31.1174 142.203 31.3705C141.859 32.7796 141.863 34.2536 142.216 35.6646L140.259 37.5118ZM78.151 11.2587L78.15 11.2611C77.9382 11.8008 77.7296 12.332 77.4941 12.8505C77.4753 12.8924 77.339 12.8808 77.1671 12.8661L77.1669 12.866L77.1666 12.866C77.0755 12.8582 76.9743 12.8496 76.8753 12.8476C76.9149 13.1095 76.935 13.3739 76.9355 13.6385C76.8984 13.9282 76.8464 14.2156 76.7798 14.4997L76.7664 14.577C76.6703 15.1346 76.575 15.6879 75.7498 15.4996C75.7094 15.4904 75.6599 15.5323 75.6078 15.5763C75.5755 15.6037 75.5421 15.6319 75.5094 15.6491C75.3558 15.73 75.2128 15.8227 75.0705 15.915C74.6506 16.1872 74.2377 16.4549 73.5828 16.3994C73.3029 16.3758 73.0151 16.3832 72.7241 16.3908C72.2808 16.4022 71.8297 16.4139 71.3864 16.3162C70.6877 16.2077 70.0075 15.9996 69.3666 15.6982C68.3765 15.1625 67.3989 14.632 66.8978 13.5574C66.7969 13.2215 66.7365 12.8748 66.7179 12.5249L67.8847 12.6376C67.8172 12.4209 67.7263 12.2082 67.6344 11.9932L67.6343 11.993C67.3917 11.425 67.1422 10.8413 67.2981 10.1256L68.4312 10.1834L67.8335 9.29732C68.0525 9.08749 68.2555 8.86892 68.4563 8.65264C68.8985 8.17646 69.3303 7.71142 69.9001 7.37526C70.3271 7.09868 70.8401 6.98591 71.3452 7.05755C71.5543 7.09401 71.7651 7.11215 71.9764 7.13033C72.3845 7.16545 72.7944 7.20073 73.198 7.36853C73.4775 7.48522 73.7716 7.56678 74.0685 7.64914C74.3584 7.72956 74.6511 7.81073 74.9355 7.92611C75.5263 8.16647 76.0271 8.53546 76.5271 8.9039C76.8264 9.1245 77.1255 9.3449 77.4436 9.53738C77.7228 9.70596 77.9038 10.0387 78.083 10.3681C78.1638 10.5167 78.2443 10.6646 78.3332 10.7964C78.2727 10.9487 78.2131 11.1004 78.1538 11.2515L78.151 11.2587ZM44.5916 71.1764L42.8317 68.5672L42.573 68.664C42.6452 68.8875 42.6997 69.1284 42.7541 69.3693L42.7541 69.3694L42.7541 69.3694C42.8777 69.9165 43.0013 70.4636 43.3333 70.8073C43.4721 70.9504 43.6059 71.1026 43.7409 71.2562L43.741 71.2563C44.1699 71.7442 44.6114 72.2465 45.267 72.5157C45.6536 72.6744 46.0205 72.8873 46.3872 73.1001C47.2369 73.5932 48.0853 74.0854 49.1741 73.9005C49.7151 74.3961 50.3304 74.2829 50.9211 74.1742C51.0798 74.145 51.2368 74.1161 51.39 74.0994C52.3816 73.9918 53.4173 73.839 53.9002 72.7013C54.2215 71.9443 54.5783 71.2026 54.9314 70.4686L54.9315 70.4683C55.0857 70.1476 55.2393 69.8284 55.3888 69.51C55.1043 69.1442 54.848 68.7572 54.6224 68.3523C54.235 67.5106 53.4592 67.0985 52.7086 66.852C52.2698 66.7084 51.8918 66.42 51.6364 66.0341C51.1932 65.7959 50.7547 65.7656 50.3293 65.7363C49.9535 65.7103 49.5878 65.6851 49.2381 65.5178C48.8436 65.3949 48.4158 65.4582 48.0755 65.69C47.8842 65.8352 47.6676 65.9508 47.4502 66.0668L47.4502 66.0668L47.4501 66.0668L47.4501 66.0668L47.4501 66.0669L47.4501 66.0669L47.45 66.0669L47.45 66.0669L47.45 66.0669L47.4499 66.067L47.4499 66.067L47.4499 66.067L47.4499 66.067L47.4498 66.067L47.4498 66.067L47.4498 66.0671L47.4497 66.0671L47.4497 66.0671L47.4497 66.0671L47.4497 66.0671L47.4496 66.0672C46.957 66.3301 46.46 66.5953 46.2416 67.2116C46.2083 67.3058 46.0402 67.344 45.8593 67.3851L45.8593 67.3851C45.7343 67.4135 45.6031 67.4433 45.5061 67.4939C45.4309 67.533 45.382 67.6224 45.3171 67.7408C45.2826 67.8037 45.2437 67.8748 45.1939 67.9509C45.0648 67.6888 44.8946 67.449 44.6898 67.2405C44.4894 67.0948 44.0585 66.9597 43.9468 67.0615C43.6315 67.38 43.367 67.7455 43.1627 68.145C42.9977 68.4346 43.1678 68.648 43.333 68.8553C43.382 68.9168 43.4306 68.9778 43.4699 69.0401C43.5479 69.1641 43.6281 69.2867 43.7083 69.4094L43.7084 69.4095C44.0663 69.9568 44.4249 70.5052 44.5916 71.1764ZM75.0914 65.9523L72.3129 65.4033C71.9845 64.968 71.6865 64.5106 71.421 64.0344C71.3267 63.8438 71.4581 63.5012 71.5752 63.273C71.6059 63.2128 71.7567 63.2147 71.9072 63.2165C71.9727 63.2173 72.0381 63.2181 72.0936 63.2137C72.0848 63.1456 72.0727 63.0758 72.0605 63.0055C71.9891 62.5932 71.9143 62.1614 72.4878 61.9184C72.6236 61.8736 72.7375 61.7797 72.8075 61.6549C72.9415 61.215 73.0971 60.7521 73.5467 60.6031C73.7002 60.5522 73.8544 60.4965 74.0095 60.4405C74.6689 60.2025 75.343 59.9592 76.0277 60.0516C77.6996 60.2778 79.3741 60.6194 80.8004 61.6126C81.6634 62.1914 82.4691 62.8521 83.2064 63.5853C83.591 63.9718 83.722 64.5437 83.5434 65.0567C83.4044 65.4218 83.2731 65.7901 83.142 66.1583L83.1419 66.1584L83.1418 66.1587L83.1418 66.1588L83.1417 66.1591L83.1416 66.1592L83.1415 66.1595L83.1415 66.1596L83.1414 66.1599L83.1413 66.16L83.1412 66.1603L83.1412 66.1604L83.1411 66.1607L83.141 66.1608L83.1409 66.1611L83.1409 66.1612L83.1408 66.1615L83.1407 66.1616L83.1406 66.1619L83.1406 66.162C82.9319 66.7475 82.7234 67.3329 82.4836 67.905C82.3432 68.243 82.1013 68.5284 81.7914 68.7218C79.932 69.7535 78.1196 69.7662 76.2546 68.1201C76.1657 68.0417 76.0647 67.9696 75.9639 67.8978C75.7563 67.7498 75.5498 67.6026 75.4527 67.4018C75.2802 66.9329 75.1591 66.4469 75.0914 65.9523ZM107.102 107.219L107.738 107.854C107.648 107.351 107.488 106.978 106.945 106.796C106.598 106.68 106.286 106.488 105.972 106.294L105.972 106.294C105.549 106.033 105.121 105.769 104.596 105.685C104.268 105.659 103.945 105.594 103.632 105.492C101.808 104.646 99.9476 104.728 98.0588 105.066L98.0153 105.074L97.9846 105.079C97.7667 105.116 97.4755 105.165 97.4424 105.275C97.3369 105.628 97.0955 105.684 96.8395 105.744C96.7784 105.758 96.7164 105.773 96.6552 105.791C96.4778 105.846 96.2191 105.974 96.1901 106.111C96.0917 106.574 95.8419 106.94 95.5901 107.308L95.59 107.308C95.5357 107.388 95.4813 107.468 95.4283 107.549C95.3624 107.649 95.248 107.852 95.557 107.962C95.7086 108.016 95.8299 108.156 95.9682 108.315C96.0352 108.393 96.1063 108.474 96.1868 108.553C95.395 108.656 94.8175 108.855 94.814 109.576C94.9835 109.694 95.1432 109.821 95.2993 109.946L95.2993 109.946L95.2994 109.946L95.2995 109.946L95.2995 109.946L95.2996 109.946L95.2996 109.946L95.2997 109.946L95.2997 109.946L95.2998 109.946L95.2999 109.946L95.2999 109.946L95.3 109.946L95.3 109.946L95.3001 109.946L95.3001 109.946L95.3002 109.946L95.3003 109.946L95.3003 109.946C95.6342 110.212 95.9516 110.465 96.3121 110.593C96.6591 110.716 96.9921 110.884 97.3253 111.053C98.0379 111.413 98.7514 111.774 99.6058 111.692C101.173 112.502 102.827 112.394 104.488 112.286L104.488 112.286L104.489 112.286C104.629 112.277 104.768 112.268 104.908 112.259C105.468 112.283 105.978 111.942 106.168 111.414C106.178 111.391 106.188 111.366 106.197 111.341C106.279 111.13 106.379 110.874 106.8 110.936C106.972 110.924 107.129 110.835 107.228 110.694C107.328 110.553 107.359 110.375 107.314 110.208C107.168 109.783 107.233 109.344 107.299 108.904C107.383 108.336 107.467 107.765 107.102 107.219ZM142.855 1.67568L142.485 0.913033C142.531 0.914474 142.573 0.912104 142.61 0.910003C142.678 0.906141 142.73 0.90318 142.765 0.926394C142.989 1.07691 143.217 1.22129 143.445 1.36564L143.445 1.36591C144.056 1.75234 144.667 2.1387 145.2 2.64281L145.276 2.71493C145.711 3.12325 146.125 3.5119 145.913 4.20374C145.855 4.39383 145.946 4.59171 146.036 4.78963C146.183 5.11035 146.329 5.4312 145.844 5.71929C145.875 6.51485 145.297 6.84618 144.737 7.16705L144.693 7.19186C144.85 7.62918 144.976 8.07649 145.072 8.53068C145.145 9.03012 144.638 9.52754 143.896 9.76808C143.828 9.79029 143.749 9.79589 143.671 9.8014C143.558 9.80942 143.447 9.81725 143.375 9.87602L143.349 9.89666C142.429 10.6423 142.427 10.6439 141.474 10.1361C140.981 9.90664 140.501 9.64959 140.037 9.36616C139.54 9.00203 138.91 8.8715 138.312 9.00846C137.369 9.19339 136.394 8.87482 135.737 8.16655C135.138 7.53484 135.029 6.65874 135.314 5.71964L135.822 5.8917L135.836 5.8965L135.935 5.92995L135.97 5.94196L135.979 5.94516L135.985 5.94707L136.01 5.95539C136.393 6.0855 136.811 6.22711 137.318 6.39875C137.192 6.21245 137.079 6.04593 136.974 5.89262L136.972 5.88827L136.969 5.88411L136.966 5.8801L136.963 5.87626L136.961 5.87257C136.742 5.55123 136.563 5.28741 136.39 5.01928C136.184 4.69981 136.204 4.66981 136.439 4.31685C136.499 4.22713 136.572 4.11655 136.66 3.97503C136.764 3.8062 136.925 3.67287 137.086 3.53952C137.4 3.28037 137.714 3.02112 137.607 2.50105L138.881 1.5692C139.665 0.994105 140.439 0.60063 141.421 1.24802C141.688 1.42486 142.025 1.49384 142.373 1.56518C142.533 1.59795 142.696 1.63122 142.855 1.67568ZM25.3148 87.3935C25.8945 88.0944 26.868 88.3229 27.6925 87.9516L27.4243 86.6421C28.0683 87.1584 28.6846 87.4603 29.5007 87.0306C29.455 86.7228 29.4249 86.413 29.4106 86.1023C29.4102 86.0207 29.4312 85.9336 29.452 85.8472C29.5106 85.6039 29.5676 85.3671 29.1394 85.2809L29.8987 84.8482C29.8175 84.3567 29.7095 83.6997 29.6084 83.084C29.6965 83.0523 29.783 83.0216 29.8682 82.9914L29.8698 82.9908C30.1418 82.8944 30.4001 82.8028 30.6521 82.6966C30.6974 82.6791 30.7304 82.4986 30.6935 82.4509C30.6132 82.3479 30.4608 82.1973 30.3805 82.2195C30.3001 82.2417 30.2241 82.3015 30.1506 82.3594C30.062 82.4292 29.977 82.4961 29.8922 82.4908C29.7968 82.4855 29.7061 82.3864 29.5827 82.2513C29.5184 82.181 29.4452 82.101 29.3578 82.0194L30.1349 82.1249C29.9465 81.8456 29.7614 81.5709 29.5789 81.2999L29.5787 81.2997L29.5786 81.2994C28.9084 80.3045 28.2722 79.36 27.6275 78.4215C27.5886 78.365 27.5161 78.3339 27.4421 78.3022C27.3846 78.2775 27.3261 78.2525 27.2818 78.2148C27.0366 78.0064 26.7524 77.8424 26.4738 77.6816C25.9244 77.3645 25.3966 77.0598 25.2317 76.4521C24.5661 75.9697 24.0781 76.2454 23.6192 76.5046C23.3183 76.6746 23.0299 76.8375 22.7122 76.7748C22.6128 76.9594 22.5293 77.1557 22.448 77.347C22.2729 77.7587 22.1076 78.1474 21.8139 78.348C21.492 78.568 21.3692 78.8942 21.2489 79.214C21.1261 79.54 21.0059 79.8595 20.6796 80.0532C20.5958 80.1028 20.5854 80.4557 20.6715 80.5791C20.8262 80.8011 20.8921 81.0509 20.9588 81.3036C21.0332 81.5856 21.1086 81.8711 21.3092 82.1257C22.0973 83.1217 22.8099 84.1753 23.4409 85.2775C23.7745 85.8639 24.2407 86.3197 24.7036 86.7723C24.9121 86.9761 25.12 87.1793 25.3148 87.3935ZM154.079 84.045L154.079 84.0452L154.079 84.0454C153.541 84.3587 153.057 84.64 153.199 85.4024C152.233 85.0698 151.849 84.63 152.005 83.7418C152.045 83.5162 152.06 83.2893 152.075 83.0613L152.075 83.0612L152.075 83.0611L152.075 83.0611L152.075 83.061L152.075 83.0609L152.075 83.0609L152.075 83.0608L152.075 83.0608L152.075 83.0607L152.075 83.0606L152.075 83.0606L152.075 83.0605L152.075 83.0604L152.075 83.0604L152.075 83.0603C152.101 82.669 152.127 82.2744 152.279 81.877C152.401 81.5586 152.362 81.184 152.322 80.8034C152.293 80.5248 152.264 80.243 152.297 79.9777C152.338 79.6437 152.481 79.3228 152.624 79.002C152.687 78.8589 152.751 78.7158 152.806 78.5715L153.474 78.6968L153.179 79.4853L153.341 79.5888L154.11 78.8717C154.155 78.8908 154.212 78.9237 154.275 78.9608C154.444 79.059 154.663 79.1867 154.864 79.1644C156.532 78.9783 158.046 79.5256 159.541 80.1269C159.832 80.2439 160.091 80.4363 160.352 80.6295L160.352 80.6296C160.531 80.7624 160.711 80.8956 160.901 81.0049L161.087 81.1112C162.088 81.6826 162.334 81.8234 162.769 82.7699C163.102 83.4942 163.452 84.2693 163.302 85.1449C163.217 85.5018 163.252 85.8774 163.402 86.2135C163.833 86.9089 163.536 87.2671 162.968 87.5988C162.807 87.6954 162.663 87.8172 162.541 87.9596C161.765 88.8569 161.649 88.8965 160.682 88.4835C159.489 87.9747 158.478 87.1871 157.469 86.401L157.469 86.4008C157.266 86.2427 157.063 86.0846 156.858 85.9289C156.26 85.4731 155.687 84.9837 155.121 84.5007L155.12 84.5001C154.871 84.287 154.623 84.0752 154.375 83.868C154.277 83.9301 154.177 83.9881 154.079 84.045ZM129.581 80.9271C129.723 80.9152 129.865 80.9034 130.008 80.8928C129.862 80.3799 129.911 79.8528 130.402 79.8689C131.105 79.894 130.957 79.5113 130.83 79.1979C130.805 79.1369 130.774 79.0762 130.743 79.0159C130.637 78.808 130.533 78.6044 130.689 78.4055C130.931 78.0955 130.922 77.7527 130.912 77.4144C130.908 77.2687 130.904 77.1238 130.92 76.9827C130.963 76.6031 130.889 76.0583 130.643 75.83C130.205 75.4591 129.692 75.1892 129.139 75.0395C128.816 74.9415 128.473 74.9154 128.129 74.8893C127.903 74.8721 127.677 74.8548 127.455 74.8171C127.174 74.7693 126.894 74.7113 126.614 74.6532C125.819 74.4885 125.023 74.3236 124.202 74.3945C123.842 74.4257 123.477 74.4134 123.113 74.4012L123.113 74.4012C122.429 74.3781 121.745 74.355 121.086 74.6206C120.459 74.9267 119.749 75.0191 119.063 74.8836C118.301 74.7081 118.011 75.0094 117.691 75.845C117.653 75.9455 117.597 76.058 117.541 76.1714C117.409 76.4379 117.275 76.7089 117.358 76.8377C117.573 77.1725 117.384 77.3054 117.195 77.4378C117.021 77.5596 116.847 77.681 116.991 77.9589C118.35 78.8186 119.954 79.2593 121.549 79.6976C121.732 79.7478 121.914 79.7979 122.096 79.8486C123.229 80.1643 124.392 80.3729 125.554 80.5815L125.554 80.5815C126.121 80.6831 126.687 80.7847 127.25 80.8987C128.03 81.0566 128.799 80.9924 129.581 80.9271ZM169.613 40.1274L169.613 40.1273L169.565 40.1033C168.43 39.5496 167.335 38.9164 166.289 38.2082C166.062 38.0533 165.824 37.91 165.585 37.7659C164.726 37.2486 163.848 36.7204 163.438 35.6088C164.11 35.6209 164.626 35.9599 165.161 36.3113C165.648 36.6312 166.151 36.9614 166.801 37.0644C166.243 36.4242 165.591 35.9783 164.913 35.5149C164.393 35.1591 163.858 34.7931 163.338 34.321L164.427 34.2239C164.322 33.9867 164.212 33.7381 164.102 33.4904L165.102 32.4967C165.169 32.527 165.245 32.5626 165.326 32.601L165.326 32.6011L165.328 32.6017C165.528 32.6963 165.764 32.8077 166.007 32.8994C167.331 33.3984 167.343 33.3954 168.848 33.0112L168.885 33.0017C169.062 32.9638 169.242 32.9454 169.422 32.9467C170.797 32.9094 172.139 33.008 173.385 33.7142C173.955 34.0242 174.46 34.442 174.871 34.9445C174.963 35.0464 175.086 35.1153 175.22 35.1403C175.343 35.1555 175.45 35.2349 175.501 35.349C175.552 35.4632 175.539 35.5953 175.467 35.6968C175.282 36.0699 175.252 36.4704 175.222 36.8703C175.199 37.1937 175.175 37.5165 175.069 37.8241C174.995 38.0989 175.045 38.3925 175.204 38.6293C175.388 39.0117 175.013 39.9194 174.649 40.0594C174.573 40.0882 174.482 40.0767 174.39 40.0651C174.207 40.0421 174.023 40.019 173.966 40.3159C173.935 40.5563 173.919 40.7985 173.919 41.0411C172.179 41.395 170.882 40.7542 169.613 40.1274ZM115.012 39.7202L115.666 39.1001C115.643 38.7301 115.401 38.5114 115.158 38.2914C114.939 38.0924 114.718 37.8924 114.656 37.5785C114.584 37.4353 114.423 37.3602 114.268 37.3974C114.113 37.4346 114.004 37.5742 114.006 37.7344C113.995 37.7929 113.862 37.8275 113.729 37.8622C113.668 37.8781 113.607 37.894 113.558 37.9123C113.545 37.8711 113.525 37.8208 113.505 37.7704C113.463 37.6626 113.42 37.5547 113.444 37.5372C114.07 37.078 113.515 36.6686 113.273 36.4984C113.07 36.3556 112.869 36.2088 112.668 36.0618C111.846 35.4621 111.02 34.8593 110.057 34.5106L110.044 34.5059C109.543 34.3248 108.906 34.0944 108.659 34.9348C108.645 34.9775 108.54 35.0184 108.476 35.0194C107.773 35.0301 107.6 35.4217 107.723 36.0433C107.831 36.586 107.511 36.5211 107.26 36.4703L107.217 36.4616L106.91 37.4391L107.883 38.2929C107.702 38.3055 107.542 38.2463 107.385 38.1882C107.116 38.089 106.857 37.9933 106.523 38.2666L106.536 38.4496L106.536 38.45L106.536 38.451L106.536 38.4521L106.536 38.4525L106.536 38.4534C106.549 38.632 106.563 38.8311 106.574 39.0303C106.58 39.127 106.598 39.2364 106.617 39.3458C106.658 39.588 106.699 39.8306 106.597 39.9372C106.174 40.3783 106.47 40.5679 106.737 40.7391C106.771 40.7614 106.806 40.7834 106.838 40.8056C107.208 41.0614 107.589 41.2995 107.971 41.5376C108.24 41.705 108.508 41.8725 108.773 42.0461C108.92 42.1651 109.056 42.2987 109.177 42.445L109.024 42.6405C108.111 42.0779 107.199 41.5151 106.174 40.883C106.5 41.7445 107.059 42.1005 107.674 42.482C108.647 43.0822 109.693 43.5543 110.786 43.8867C112.168 44.3121 113.593 44.4774 114.778 43.3107C114.882 43.2241 114.994 43.1476 115.112 43.082L115.686 40.0778L115.012 39.7202ZM93.7869 16.1025L94.6257 16.2685L94.4316 15.8941C94.319 15.677 94.2134 15.4733 94.1017 15.2583C94.2284 15.1276 94.3548 14.9936 94.4822 14.8584C94.7839 14.5385 95.0911 14.2127 95.4208 13.9112C95.7078 13.6497 96.0321 13.4325 96.3832 13.2668C96.4946 13.2144 96.5794 13.2859 96.6755 13.3668C96.8078 13.4784 96.9615 13.6079 97.2355 13.4564C97.4882 13.3159 97.9122 13.528 98.2985 13.7212L98.2988 13.7214L98.2994 13.7217L98.3006 13.7223C98.3799 13.7619 98.4576 13.8008 98.5319 13.8356C98.6461 13.8891 98.7398 14.0052 98.8347 14.1227C99.0347 14.3706 99.2398 14.6246 99.6527 14.3104L100.517 15.4506C100.537 15.476 100.559 15.4992 100.581 15.5226L100.6 15.5425L100.611 15.5538L103.626 16.1494C103.813 16.003 104.012 15.8719 104.22 15.7572C104.552 15.6031 105.078 15.6842 105.049 15.9736C105.015 16.318 105.23 16.4411 105.435 16.558C105.613 16.6595 105.783 16.7563 105.774 16.9888C105.03 17.9014 104.756 18.131 103.906 18.51C104.376 18.7961 104.785 19.0454 105.3 19.3586C105.287 19.4179 105.281 19.4943 105.275 19.5752C105.26 19.7665 105.243 19.9828 105.131 20.0568C104.919 20.1981 104.711 20.3528 104.504 20.5078C103.736 21.0814 102.963 21.6582 101.887 21.5696C101.514 21.5785 101.142 21.5467 100.777 21.4748C100.102 21.261 99.4412 20.9989 98.7816 20.7371L98.5707 20.6535L98.4458 20.6041C98.2252 20.5171 98.0098 20.4171 97.7944 20.3171C97.6377 20.2444 97.4811 20.1716 97.3224 20.1039C97.1016 20.0094 96.9151 19.8515 96.7286 19.6936C96.4219 19.4341 96.1154 19.1747 95.6572 19.1973C95.4413 18.7466 95.0545 18.5219 94.6592 18.2921L94.659 18.292C94.5378 18.2216 94.4158 18.1507 94.2977 18.0727C93.9627 17.8843 93.7185 17.5671 93.622 17.1948C93.5255 16.8226 93.5851 16.4278 93.7869 16.1025ZM45.4456 22.4824L44.33 23.2349C43.5466 23.6465 42.8691 24.2335 42.3497 24.9507C42.1263 25.256 41.9913 25.6134 41.8552 25.9735C41.717 26.3395 41.5776 26.7084 41.3433 27.0284C41.2902 27.1005 41.3489 27.3149 41.4234 27.4099C41.651 27.705 41.8992 27.9836 42.1661 28.2435C42.6682 28.7251 43.2963 28.9492 43.9263 29.174C44.1156 29.2416 44.3051 29.3092 44.4915 29.3839C46.0817 30.0205 47.6298 30.2583 49.1354 29.1999C49.2429 29.1137 49.3784 29.0701 49.5163 29.0773C50.0214 29.1954 50.1607 28.8929 50.2994 28.5916C50.3752 28.427 50.4509 28.2627 50.5859 28.1678C50.5626 27.4332 50.9042 26.8173 51.2372 26.2168C51.3553 26.0039 51.4724 25.7929 51.5717 25.5792C51.9095 24.8522 51.8278 24.3818 51.3674 23.9602C51.2759 23.8764 51.1849 23.7909 51.0937 23.7052C50.3796 23.0341 49.6509 22.3492 48.5523 22.3419C48.405 22.3405 48.2572 22.2982 48.1091 22.2559C47.7988 22.1672 47.487 22.0781 47.1759 22.3629C47.0649 22.426 46.9289 22.4268 46.8165 22.365C46.3436 21.8572 45.9561 22.1274 45.5665 22.3991C45.5262 22.4271 45.486 22.4552 45.4456 22.4824ZM82.1793 83.5283C82.5449 83.689 82.8136 83.8072 83.3358 84.0364C83.2474 83.8584 83.182 83.7255 83.1302 83.6203L83.1299 83.6197L83.1296 83.6192C83.0473 83.4518 82.9996 83.355 82.9493 83.259L82.9483 83.2572C82.8239 83.0204 82.7566 82.8924 82.7747 82.7778C82.7959 82.6429 82.9353 82.5266 83.2388 82.2735L83.2403 82.2722C83.2583 82.2572 83.2797 82.2415 83.3016 82.2256C83.3656 82.1788 83.4337 82.1291 83.4323 82.0835C83.3906 81.5283 83.7492 81.0243 84.2857 80.884C84.8779 80.6669 85.5077 80.5696 86.139 80.5976C88.4929 80.8573 90.5216 81.9654 92.4238 83.3099C92.646 83.4669 92.7926 83.7313 92.9384 83.9941C93.0054 84.115 93.0722 84.2355 93.1461 84.345L92.65 84.6048C92.9744 85.0205 93.0942 85.4094 92.6573 85.8547C92.5172 86.0466 92.4813 86.296 92.5612 86.5209C92.7415 86.8537 92.564 87.0259 92.3898 87.1948C92.2711 87.31 92.154 87.4236 92.1528 87.5855C91.8208 87.4377 91.6308 87.6328 91.4395 87.8291C91.2728 88.0003 91.1051 88.1725 90.8416 88.1193C90.6513 88.0807 90.4528 88.0611 90.2549 88.0415C89.8878 88.0052 89.5228 87.9692 89.2164 87.8127C88.1607 87.3061 87.162 86.6871 86.2377 85.9664C85.8649 85.6135 85.3662 85.4261 84.8554 85.4469C84.062 85.5204 83.2644 85.3403 82.5767 84.9325L82.5534 84.9182C81.985 84.5712 81.9808 84.5686 82.1793 83.5283ZM95.0037 53.6603C95.0795 53.8208 95.1758 53.9708 95.2903 54.1065C95.7362 54.2761 96.1799 54.3904 96.6147 54.5023C96.8215 54.5555 97.0262 54.6082 97.2282 54.6661C98.4791 55.0292 99.765 55.3996 101.145 55.1094C102.066 54.9153 102.677 54.3759 102.714 53.6132C102.724 53.3946 102.809 53.1841 102.893 52.9745C103.043 52.5996 103.193 52.2277 102.914 51.8188C103.512 51.2787 103.028 50.8045 102.691 50.5254C101.749 49.7445 100.771 48.9723 99.5509 48.6614C99.3264 48.6042 99.0911 48.5921 98.8556 48.5801L98.8555 48.5801C98.6377 48.569 98.4197 48.5578 98.2099 48.5108C97.8629 48.4334 97.5248 48.315 97.1598 48.1872L97.1597 48.1871C96.9941 48.1291 96.8229 48.0692 96.6429 48.0103L95.0995 49.5533L95.1911 49.7521L95.2522 49.885L95.2533 49.8874C95.3311 50.0564 95.4099 50.2278 95.506 50.4352L93.4194 50.2387C93.3862 50.3897 93.3668 50.5512 93.3484 50.7034C93.3112 51.0132 93.2785 51.2847 93.1439 51.3512C92.9256 51.4594 92.7975 51.6278 92.6695 51.7962C92.5438 51.9614 92.4182 52.1267 92.2071 52.2353C92.4079 52.305 92.5966 52.2139 92.7784 52.1261C93.0601 51.9901 93.3256 51.862 93.5948 52.3519L92.866 52.4885C93.0635 53.1913 93.5909 53.162 94.1388 53.1315L94.1392 53.1315C94.1929 53.1285 94.2469 53.1255 94.3008 53.1231C94.0957 52.9527 93.8916 52.7811 93.6383 52.5686C93.7764 52.4974 93.9257 52.4502 94.0798 52.4291C94.2673 52.4404 94.4491 52.4998 94.6077 52.6015C94.6487 52.6311 94.6528 52.7054 94.6571 52.7843C94.6611 52.8564 94.6653 52.9324 94.6982 52.9811C94.7357 53.0355 94.8017 53.0728 94.8665 53.1093C94.938 53.1497 95.0081 53.1892 95.0368 53.25C95.0628 53.3046 95.0426 53.3799 95.0222 53.456C95.0027 53.5292 94.9828 53.6032 95.0037 53.6603ZM125.844 56.4426L126.581 56.244C126.232 55.6749 125.708 55.5368 125.177 55.3967C124.726 55.2777 124.269 55.1573 123.91 54.7698C124.128 54.7083 124.353 54.6716 124.58 54.6602C124.928 54.7074 125.274 54.7725 125.616 54.8554C125.343 54.5031 124.955 54.2587 124.521 54.1659C124.584 53.4919 124.612 53.1959 124.757 52.9762C124.87 52.8041 125.054 52.6789 125.383 52.4557C125.604 52.5131 125.828 52.588 126.055 52.6635L126.055 52.6635C126.575 52.837 127.105 53.0139 127.627 52.9917C128.129 52.9705 128.542 53.1461 128.953 53.3205C129.217 53.4326 129.48 53.5443 129.764 53.6027C130.467 53.7967 131.137 54.0949 131.753 54.4873C132.123 54.6695 132.433 54.9567 132.642 55.3131C132.844 55.7458 133.066 56.4323 132.866 56.7289C132.637 57.0694 132.722 57.2955 132.81 57.5276C132.848 57.6283 132.886 57.7301 132.899 57.8429C132.959 58.352 132.94 58.8995 132.506 59.3106C132.413 59.3978 132.33 59.5124 132.247 59.6253L132.247 59.6254C132.102 59.8236 131.96 60.0164 131.786 60.0459C131.114 60.1847 130.421 60.1923 129.745 60.0684C128.519 59.7685 127.312 59.3898 126.133 58.9348C125.937 58.8617 125.79 58.6516 125.618 58.4043L125.618 58.4043L125.618 58.4041C125.53 58.2785 125.436 58.1433 125.325 58.0116L126.028 58.0736C125.691 57.7016 125.752 57.3222 125.81 56.9641C125.84 56.7836 125.868 56.6086 125.844 56.4426ZM148.688 105.407L149.573 105.328C149.23 104.964 148.863 104.624 148.475 104.309C148.303 104.191 147.925 104.117 147.812 104.217C147.564 104.436 147.297 104.395 147.049 104.357C146.888 104.333 146.735 104.309 146.599 104.358C146.257 104.483 145.969 104.414 145.683 104.345C145.571 104.318 145.459 104.291 145.345 104.276C145.113 104.245 144.879 104.183 144.646 104.121C144.252 104.015 143.862 103.911 143.491 103.963C143.121 104.016 142.787 103.952 142.457 103.89C142.244 103.85 142.032 103.81 141.814 103.801C141.428 103.787 141.043 103.779 140.659 103.771L140.659 103.771L140.658 103.771L140.658 103.771L140.658 103.771L140.657 103.771L140.655 103.771L140.457 103.767C140.353 103.765 140.25 103.763 140.147 103.761L138.839 104.644C139.266 104.997 139.037 105.152 138.805 105.309C138.625 105.431 138.443 105.554 138.572 105.774C138.671 105.95 138.868 105.976 139.067 106.003C139.344 106.04 139.625 106.077 139.648 106.52C139.546 106.508 139.442 106.487 139.339 106.466C138.932 106.384 138.536 106.304 138.317 106.788C138.825 107.468 139.565 107.594 140.305 107.721L140.412 107.739C140.557 107.755 140.7 107.785 140.84 107.826C142.344 108.387 143.887 108.835 145.456 109.167C145.639 109.204 145.813 109.286 145.988 109.368C146.149 109.443 146.311 109.519 146.481 109.56L146.551 109.577C147.175 109.729 147.821 109.886 148.384 109.38C148.241 109.099 147.977 108.988 147.719 108.88C147.407 108.75 147.102 108.623 147.026 108.202L149.081 108.608L149.469 107.802L148.009 106.859C149.05 106.674 149.082 106.578 148.688 105.407ZM86.4099 29.5972C86.5587 29.5108 86.673 29.4058 86.7819 29.3059C86.9908 29.1141 87.1793 28.9412 87.5519 28.9543L87.1793 29.4507C87.3069 29.5565 87.4356 29.6615 87.5644 29.7664L87.5646 29.7666L87.5649 29.7668L87.5651 29.767L87.5653 29.7672C87.912 30.0497 88.259 30.3325 88.586 30.6346C88.7015 30.7411 88.8041 31.0355 88.7412 31.1321C88.5385 31.4444 88.5256 31.7876 88.513 32.1273C88.504 32.3677 88.4951 32.6063 88.419 32.831C88.3062 33.0784 88.1324 33.2927 87.9138 33.4538C87.8631 33.4969 87.7771 33.4984 87.6912 33.4999C87.6059 33.5014 87.5207 33.5029 87.4705 33.5452C87.3573 33.688 87.2713 33.8506 87.2168 34.0248L87.166 33.9817C86.5113 33.4254 86.4775 33.3967 85.4968 33.6605C85.1232 33.7613 84.8166 33.6393 84.5058 33.5155C84.3162 33.44 84.125 33.3639 83.916 33.3374L83.984 33.7685L84.0213 34.0042C83.9538 33.9891 83.8784 33.9811 83.8046 33.9733C83.6506 33.9571 83.5038 33.9416 83.4514 33.8631C82.4807 32.4101 82.4573 32.378 81.2144 31.9536C81.2564 32.4983 81.6228 32.679 82.0106 32.8703C82.2677 32.997 82.5341 33.1284 82.7218 33.3734C82.6584 33.4031 82.5893 33.4442 82.522 33.4841C82.3829 33.5666 82.2519 33.6444 82.1968 33.6074C82.0757 33.5265 81.9517 33.4488 81.8278 33.3713C81.1148 32.925 80.4079 32.4825 80.2975 31.4334C80.2925 31.3851 80.2869 31.3403 80.2817 31.2984C80.2457 31.0078 80.2268 30.8558 80.5173 30.6528C80.7222 30.4763 80.8776 30.2493 80.9683 29.994C81.1616 29.5501 81.3371 29.0985 81.5207 28.6259L81.5207 28.6258L81.521 28.625C81.5969 28.4298 81.6741 28.2311 81.7545 28.0278L82.1548 28.1934C82.406 28.1978 82.5345 28.0138 82.6447 27.8561C82.7953 27.6404 82.9115 27.4741 83.2602 27.907C83.3263 27.989 83.3875 27.9092 83.4606 27.814C83.5771 27.6621 83.7236 27.471 83.9684 27.8339C84.0752 27.9923 84.3825 28.0156 84.6781 28.038L84.6781 28.0381L84.6783 28.0381C84.8092 28.048 84.9378 28.0578 85.0456 28.079C85.0776 28.2154 85.1085 28.3484 85.1389 28.4798L85.2119 28.7934C85.2993 28.7951 85.3868 28.7966 85.4742 28.7979L85.4378 28.4721L85.375 27.9117C85.7061 28.0708 85.9379 28.182 86.1715 28.2941L86.4633 28.4342C86.4473 28.7927 86.4286 29.1951 86.4099 29.5972ZM68.9066 92.879L70.287 93.3211C70.3642 93.1296 70.4195 92.9299 70.4517 92.7257C70.4255 92.548 70.389 92.3719 70.3424 92.1984L70.338 92.1704L70.338 92.1703C70.3121 92.0057 70.2709 91.7439 70.3117 91.7287C70.6352 91.609 70.7122 91.3121 70.789 91.0159C70.8714 90.6984 70.9535 90.3819 71.3387 90.2854C71.3183 90.1635 71.2914 90.0428 71.2582 89.9237C70.9416 89.9722 70.8691 89.7672 70.7973 89.5645C70.7596 89.458 70.7221 89.3521 70.6495 89.2839C70.337 88.9901 69.966 88.8375 69.5992 88.6867C69.3399 88.58 69.0827 88.4743 68.8497 88.32C67.8462 87.6467 66.7028 87.2132 65.5081 87.0533L63.2731 89.069L64.0717 90.2529C63.8373 90.3126 63.6051 90.2515 63.3799 90.1923C63.0568 90.1073 62.7481 90.026 62.4683 90.3112C62.7742 91.0776 63.2316 91.7088 63.9455 91.9757C64.5363 92.1966 65.1052 92.4643 65.6735 92.7317C66.2216 92.9897 66.769 93.2473 67.3348 93.4623C67.8668 93.6955 68.4501 93.7835 69.0254 93.7172L68.9066 92.879ZM106.975 89.973L108.205 90.7631L108.028 90.0206C108.037 90.0203 108.046 90.0195 108.055 90.0184C108.072 90.0165 108.09 90.0137 108.107 90.0108C108.165 90.0016 108.222 89.9924 108.25 90.0164C108.631 90.3556 109.093 90.5905 109.59 90.698C109.899 90.7831 110.196 90.9104 110.471 91.0764C110.938 91.3673 111.518 91.4064 112.017 91.1808C111.987 90.9704 111.957 90.7534 111.943 90.6527L112.942 90.7044C112.983 90.7642 113.017 90.8089 113.042 90.8426C113.081 90.8943 113.1 90.9201 113.094 90.9349C112.998 91.1647 112.895 91.3915 112.797 91.6068L112.72 91.7753C113.003 92.0673 113.26 92.3325 113.643 92.7292L112.519 92.8854L112.615 93.5973L112.698 94.202L112.158 94.6636L112.522 95.204C112.224 96.0711 111.686 96.3448 110.833 96.2169C110.481 96.164 110.127 96.1299 109.767 96.0954L109.767 96.0954C109.178 96.0389 108.577 95.9811 107.952 95.8377L108.362 94.8413C107.885 94.4384 107.329 94.1409 106.731 93.9683C106.289 93.8316 105.881 93.5818 105.481 93.3362L105.481 93.3361C105.307 93.2295 105.134 93.1237 104.961 93.0283C105.006 92.4921 105.328 92.4654 105.667 92.4372C105.757 92.4297 105.848 92.4222 105.935 92.405C105.913 92.3625 105.894 92.3162 105.876 92.2708C105.839 92.1754 105.803 92.0843 105.736 92.0423C105.124 91.6568 105.046 91.3156 105.543 90.9451C105.867 90.7044 106.205 90.4821 106.538 90.263C106.685 90.1661 106.832 90.0699 106.975 89.973ZM76.9736 118.45L75.8223 117.982L75.8054 118.023L75.779 118.087C75.6556 118.381 75.5469 118.64 75.7527 119.019C76.2204 119.881 76.9997 120.349 77.7763 120.815C77.9762 120.935 78.1759 121.055 78.3701 121.182C78.7595 121.436 79.443 121.143 79.8516 120.714C80.019 120.546 80.2071 120.401 80.4114 120.281C80.9354 120 81.1427 119.354 80.8813 118.816C80.7236 118.42 80.6514 118.132 80.9415 117.787C81.2181 117.502 81.2167 117.046 80.9383 116.759C80.9135 116.727 80.888 116.695 80.8624 116.664C80.6536 116.405 80.4386 116.138 80.5666 115.726C80.5458 115.532 80.428 115.36 80.2536 115.27C80.1651 115.237 80.0421 115.263 79.9269 115.287C79.8054 115.313 79.6926 115.337 79.6381 115.286C79.5701 115.223 79.5639 115.101 79.5575 114.973C79.5517 114.857 79.5456 114.736 79.4913 114.654C79.1123 114.08 78.4892 114.065 77.9298 114.193C77.7799 114.227 77.646 114.313 77.5089 114.401C77.302 114.533 77.0877 114.67 76.7997 114.642C76.7732 114.639 76.7362 114.799 76.6926 114.987L76.6925 114.988L76.6925 114.988C76.6577 115.137 76.6188 115.305 76.5777 115.424C76.5095 115.551 76.4248 115.67 76.3259 115.775L76.9961 116.769C76.6406 116.56 76.4618 116.455 76.3151 116.368L75.6122 116.842C75.7329 116.956 75.8501 117.066 75.9645 117.172L75.9646 117.172C76.273 117.46 76.5603 117.729 76.8364 118.008C76.8872 118.06 76.9045 118.144 76.9269 118.253C76.939 118.312 76.9525 118.378 76.9736 118.45ZM99.8223 69.9626L101.021 69.5828C100.92 69.0809 100.715 68.6721 100.134 68.5545C100.23 68.1556 100.506 68.1316 100.793 68.1066C100.99 68.0894 101.192 68.0719 101.344 67.9318L101.025 67.2003C101.07 66.9143 101.277 66.8851 101.496 66.8544C101.712 66.824 101.938 66.792 102.031 66.509C102.146 66.1576 102.394 66.2377 102.659 66.3234C102.833 66.3798 103.015 66.4387 103.172 66.3779C103.435 66.3214 103.71 66.3461 103.96 66.449C104.308 66.5554 104.616 66.7476 104.926 66.9409C105.356 67.2093 105.79 67.4796 106.337 67.524C106.488 67.5363 106.623 67.7424 106.778 67.9777C106.856 68.0953 106.938 68.2201 107.029 68.3317C106.566 68.3945 106.521 68.7169 106.476 69.0409C106.433 69.3487 106.391 69.6579 105.988 69.7475C105.994 69.8867 106.052 70.0262 106.111 70.1687C106.247 70.499 106.391 70.8453 105.911 71.2407L105.108 70.8532L105.169 71.2506L105.231 71.6631C104.901 72.0217 104.495 71.8283 104.208 71.6917L104.169 71.6729C103.237 71.2272 102.209 71.0263 101.182 71.0889C100.531 71.1232 99.9714 70.841 99.8223 69.9626ZM71.4319 43.8647L72.1499 41.6203C72.0398 41.5175 71.9295 41.3947 71.815 41.2675C71.5478 40.9703 71.2582 40.6484 70.8984 40.4965C69.9872 40.0906 69.0194 39.8285 68.0297 39.7197C66.8885 39.6231 65.6839 39.7213 65.3451 41.2202C65.3233 41.3163 65.2395 41.3979 65.1448 41.49C65.0956 41.5379 65.0434 41.5887 64.9955 41.6458C65.0902 41.7403 65.1748 41.8426 65.2554 41.9401C65.42 42.1392 65.568 42.3181 65.7506 42.3684C65.8734 42.4023 65.9969 42.434 66.1201 42.4655C66.8539 42.6534 67.5771 42.8386 68.0918 43.489C68.6561 43.5401 69.1174 43.821 69.5753 44.0999C69.8499 44.2671 70.1233 44.4336 70.4169 44.5493L71.4319 43.8647Z" fill="#F5D3AB"/>
</svg>
