<svg width="102" height="88" viewBox="0 0 102 88" fill="none" xmlns="http://www.w3.org/2000/svg">
<path fill-rule="evenodd" clip-rule="evenodd" d="M39.0961 20.4706C38.1573 20.4706 37.3963 19.7068 37.3963 18.7647C37.3813 16.787 38.123 14.879 39.4684 13.4338C40.3182 12.5879 40.7961 11.4365 40.7961 10.2353C40.7961 9.03412 40.3182 7.88268 39.4684 7.03676C38.123 5.59164 37.3813 3.68356 37.3963 1.70588C37.3963 0.763749 38.1573 0 39.0961 0C40.0349 0 40.796 0.763749 40.796 1.70588C40.7847 2.90926 41.2643 4.06491 42.1235 4.90441C44.8864 7.91753 44.8864 12.5531 42.1235 15.5662C41.2643 16.4057 40.7847 17.5613 40.796 18.7647C40.796 19.7068 40.0349 20.4706 39.0961 20.4706ZM86.53 73.7647H97.9953C98.9769 73.6809 99.9511 73.9942 100.701 74.6349C101.452 75.2756 101.915 76.1907 101.99 77.1765V80.5882C101.99 84.4145 98.2197 87.4118 93.4058 87.4118H15.3835C10.5696 87.4118 6.79933 84.4145 6.79933 80.5882V77.1765C6.87379 76.1907 7.33772 75.2756 8.08792 74.6349C8.83813 73.9942 9.81237 73.6809 10.7939 73.7647H24.9246C21.673 71.4697 19.2409 68.1883 17.9859 64.4028C16.1001 64.9444 14.1493 65.2245 12.1878 65.2353C4.78333 65.2353 0 58.8536 0 48.9782C0 44.56 0 31.1176 12.1878 31.1176C13.8109 31.1178 15.4274 31.3253 16.9983 31.7352V29.4118C16.9983 27.5275 18.5204 26 20.398 26H61.194C63.0715 26 64.5936 27.5275 64.5936 29.4118V48.9492C65.0284 49.1435 65.4746 49.311 65.9297 49.4508C66.2514 48.6713 66.6152 47.9099 67.0193 47.17C67.3788 46.5267 67.9504 46.029 68.6358 45.7626L77.3645 42.4157C78.066 42.1486 78.8401 42.1456 79.5436 42.4072C80.2835 42.6983 81.006 43.0321 81.7075 43.4068C82.2979 42.5382 82.769 41.5938 83.1082 40.5989C83.6384 39.0024 84.9565 37.7966 86.5895 37.4141C86.6404 36.6021 86.6659 35.7884 86.6659 34.9917V34.9914C86.6795 31.6633 86.695 27.8884 90.9036 26.2798C91.972 25.8525 93.1763 25.9379 94.1741 26.5118C94.9594 26.9502 97.2797 28.2756 99.0033 36.5765C100.519 37.1024 101.598 38.458 101.772 40.0582C102.202 43.8368 102.023 47.6602 101.242 51.3818C100.318 54.8161 98.8145 58.0662 96.7969 60.9911C96.9533 61.3254 97.0927 61.6325 97.2049 61.8884C97.6305 62.8533 97.5614 63.9658 97.0196 64.8702C94.4777 68.8119 90.8269 71.9075 86.53 73.7647ZM92.5117 29.4766C92.3922 29.3953 92.2376 29.3874 92.1105 29.4561C90.2509 30.1675 90.0792 31.4588 90.0707 34.9934C90.069 35.5717 90.0639 36.1926 90.0418 36.8289C92.1989 36.5492 94.0517 36.4229 95.4813 36.3632C94.1979 30.7151 92.8023 29.6386 92.5117 29.4766ZM86.3515 41.6327C86.5247 41.1251 86.9626 40.7546 87.4904 40.6689C87.7087 40.6239 87.9254 40.5879 88.153 40.5501L88.1531 40.5501L88.1533 40.5501C88.2534 40.5335 88.3556 40.5165 88.461 40.4983C91.4291 39.995 94.4327 39.7308 97.4429 39.7085H97.5551C97.9702 39.6801 98.337 39.9775 98.3965 40.3908C98.7882 43.7863 98.6355 47.2228 97.9443 50.5698C97.3026 53.0038 96.3078 55.33 94.9917 57.4735C92.4176 52.6998 88.8804 48.5167 84.6057 45.1912C85.3409 44.0872 85.9279 42.8907 86.3515 41.6327ZM78.4694 45.6347L69.9481 48.9015H69.9413C65.7104 56.6087 67.123 67.2278 67.9321 71.4532C68.063 72.1424 68.1939 72.7156 68.2908 73.1335C69.4217 73.4977 70.5957 73.7099 71.7822 73.7647H74.0243C76.884 73.5578 79.6958 72.9164 82.3637 71.8626C90.1421 68.8842 93.1678 64.7679 94.1078 63.1371C93.0879 60.9399 87.5686 49.2256 78.4694 45.6347ZM59.5944 71.1325C61.2703 71.9487 63.0135 72.6177 64.8044 73.1318C64.8382 73.2903 64.8706 73.433 64.9009 73.5669L64.901 73.5674C64.9164 73.6351 64.9312 73.7006 64.9455 73.7647H56.6044C57.6912 72.9961 58.6935 72.1138 59.5944 71.1325ZM57.7603 66.0115C59.6972 67.4502 61.8501 68.5702 64.1381 69.3294C63.26 63.782 63.4911 58.1147 64.818 52.6578C63.6097 52.2993 62.457 51.774 61.3928 51.0969C60.9859 50.8562 60.4782 50.8674 60.0823 51.1259C59.8506 51.2609 59.6477 51.3915 59.4533 51.5168C59.3725 51.5689 59.2931 51.62 59.2137 51.6701C56.5887 53.3128 54.0933 55.1554 51.7497 57.1818C51.731 57.2023 51.709 57.2227 51.6869 57.2432L51.6868 57.2432C51.3062 57.5348 51.1789 58.0528 51.3808 58.4885C53.0692 61.3394 55.2261 63.883 57.7603 66.0115ZM49.4243 46.0066C49.4777 45.8261 49.6163 45.6838 49.7949 45.6262C51.5967 44.9438 52.4211 45.7592 54.5204 48.4596C54.8808 48.9219 55.2666 49.4166 55.6814 49.9131C53.8286 51.1601 52.3038 52.3166 51.1514 53.2481C49.3835 49.2938 49.0674 46.9312 49.4243 46.0066ZM12.1878 55C13.8472 54.9765 15.4843 54.6125 16.9983 53.9304V42.9309C15.6358 41.8419 13.9281 41.2818 12.1878 41.3529C11.3481 41.3529 10.199 41.3529 10.199 48.9782C10.199 51.897 10.8959 55 12.1878 55ZM3.39966 48.9803C3.39997 42.2496 4.40036 34.5294 12.1878 34.5294C13.821 34.5212 15.445 34.7752 16.9983 35.2817V38.9476C15.4872 38.2639 13.8453 37.9203 12.1878 37.9412C7.21069 37.9412 6.79933 43.1629 6.79933 48.9782C6.79933 54.8857 8.81363 58.4118 12.1878 58.4118C13.8271 58.3949 15.4525 58.1067 16.9983 57.5588V58.4118C17.0055 59.3034 17.0771 60.1934 17.2125 61.0746C15.5806 61.5583 13.8893 61.8104 12.1878 61.8235C6.6859 61.8235 3.40022 57.0223 3.39966 48.9803ZM20.398 58.4118C20.3964 59.5742 20.5293 60.7328 20.794 61.8645V61.8594C22.3652 68.8437 28.5618 73.7941 35.6965 73.7647H45.8955C49.9001 73.7707 53.7447 72.1874 56.5908 69.3601L56.5367 69.323L56.5367 69.3229L56.5366 69.3229L56.5365 69.3228C56.247 69.1238 55.958 68.9252 55.678 68.7085C52.8229 66.3296 50.392 63.4805 48.4894 60.2831C47.6478 58.8768 47.6775 57.1123 48.5659 55.7352C46.1419 50.6654 45.3702 47.0557 46.2558 44.7647C46.6585 43.6855 47.5092 42.8356 48.5863 42.4362C52.8755 40.7965 55.2662 43.8713 57.1903 46.3459L57.2011 46.3597C57.6515 46.9397 58.1241 47.5197 58.6153 48.0826C59.4075 47.6654 60.3032 47.4876 61.194 47.5709V29.4118H20.398L20.398 58.4118ZM98.5903 80.5882C98.5903 82.4374 96.2105 84 93.4058 84H15.3835C12.5788 84 10.199 82.4374 10.199 80.5882V77.3317C10.3782 77.2235 10.5849 77.1695 10.7939 77.1765H97.9953C98.2044 77.1695 98.411 77.2235 98.5903 77.3317V80.5882ZM27.1973 18.7647C27.1973 19.7068 27.9584 20.4706 28.8971 20.4706C29.8359 20.4706 30.597 19.7068 30.597 18.7647C30.5857 17.5613 31.0654 16.4057 31.9245 15.5662C34.6874 12.5531 34.6874 7.91753 31.9245 4.90441C31.0654 4.06491 30.5857 2.90926 30.597 1.70588C30.597 0.763749 29.8359 0 28.8971 0C27.9584 0 27.1973 0.763749 27.1973 1.70588C27.1823 3.68356 27.924 5.59164 29.2694 7.03676C30.1192 7.88268 30.5971 9.03412 30.5971 10.2353C30.5971 11.4365 30.1192 12.5879 29.2694 13.4338C27.924 14.879 27.1823 16.787 27.1973 18.7647ZM49.2951 20.4706C48.3563 20.4706 47.5953 19.7068 47.5953 18.7647C47.5803 16.787 48.322 14.879 49.6674 13.4338C50.5172 12.5879 50.9951 11.4365 50.9951 10.2353C50.9951 9.03412 50.5172 7.88268 49.6674 7.03676C48.322 5.59164 47.5803 3.68356 47.5953 1.70588C47.5953 0.763749 48.3563 0 49.2951 0C50.2339 0 50.995 0.763749 50.995 1.70588C50.9837 2.90926 51.4633 4.06491 52.3225 4.90441C55.0854 7.91753 55.0854 12.5531 52.3225 15.5662C51.4633 16.4057 50.9837 17.5613 50.995 18.7647C50.995 19.7068 50.2339 20.4706 49.2951 20.4706Z" fill="#F5AE5C"/>
</svg>
